<?xml version="1.0" encoding="UTF-8"?>
<svg version="1.1" xmlns="http://www.w3.org/2000/svg" width="322" height="78">
<path d="M0 0 C7.26 0 14.52 0 22 0 C22.94875 3.3 23.8975 6.6 24.875 10 C25.17003418 11.02351563 25.46506836 12.04703125 25.76904297 13.1015625 C27.28158332 18.37962363 28.70389811 23.66459028 30 29 C30.30236572 27.94872925 30.30236572 27.94872925 30.61083984 26.8762207 C31.52957971 23.68754429 32.45224926 20.50001793 33.375 17.3125 C33.69210938 16.20970703 34.00921875 15.10691406 34.3359375 13.97070312 C34.6453125 12.90400391 34.9546875 11.83730469 35.2734375 10.73828125 C35.55622559 9.75899658 35.83901367 8.77971191 36.13037109 7.77075195 C36.95724011 5.13623862 37.97450615 2.56373463 39 0 C45.93 0 52.86 0 60 0 C60 1.65 60 3.3 60 5 C58.02 5.66 56.04 6.32 54 7 C54.12117188 7.87213135 54.24234375 8.7442627 54.3671875 9.64282227 C54.81822273 12.90567186 55.26500002 16.16904776 55.70898438 19.43286133 C55.90131375 20.84031863 56.0952948 22.24755132 56.29101562 23.65454102 C56.57345301 25.68708148 56.84976911 27.7203789 57.125 29.75390625 C57.37636719 31.58417358 57.37636719 31.58417358 57.6328125 33.45141602 C57.99952464 36.99540596 58.06389413 40.43989875 58 44 C59.98 44.33 61.96 44.66 64 45 C64 46.32 64 47.64 64 49 C56.41 49 48.82 49 41 49 C41 47.68 41 46.36 41 45 C43.97 44.505 43.97 44.505 47 44 C46.71003828 41.62478167 46.41802821 39.24984058 46.125 36.875 C46.04636719 36.22917969 45.96773437 35.58335938 45.88671875 34.91796875 C45.02174894 27.93167414 44.00798829 20.96686879 43 14 C42.7326001 14.9286084 42.4652002 15.8572168 42.18969727 16.81396484 C41.19832843 20.25479863 40.2044111 23.69489185 39.2097168 27.13476562 C38.77933161 28.62447309 38.34964046 30.11438125 37.9206543 31.60449219 C37.30439112 33.74467088 36.68564639 35.88411854 36.06640625 38.0234375 C35.87470352 38.69120209 35.68300079 39.35896667 35.48548889 40.04696655 C34.11387171 44.77225659 34.11387171 44.77225659 33 47 C30.03 47 27.06 47 24 47 C22.73514989 42.94363827 21.47176418 38.88682421 20.2097168 34.82958984 C19.78042901 33.45023361 19.35074557 32.07100044 18.9206543 30.69189453 C18.30152288 28.70637945 17.68382882 26.72042204 17.06640625 24.734375 C16.69459229 23.54038086 16.32277832 22.34638672 15.93969727 21.11621094 C15.22648655 18.75107152 14.56448489 16.40361307 14 14 C12.16837619 15.83162381 12.50131119 18.74815668 12.24609375 21.22265625 C12.11396484 22.48271484 11.98183594 23.74277344 11.84570312 25.04101562 C11.7095409 26.38150082 11.57347444 27.72199574 11.4375 29.0625 C11.29792894 30.40694293 11.15796014 31.75134463 11.01757812 33.09570312 C10.67445862 36.3967494 10.33545333 39.69816731 10 43 C11.98 43.66 13.96 44.32 16 45 C16 46.32 16 47.64 16 49 C9.73 49 3.46 49 -3 49 C-2.67 47.35 -2.34 45.7 -2 44 C-0.68 44 0.64 44 2 44 C2.03738281 43.31679688 2.07476563 42.63359375 2.11328125 41.9296875 C2.60675295 34.36312149 3.48073212 26.88726812 4.5 19.375 C4.63059814 18.40288574 4.76119629 17.43077148 4.89575195 16.42919922 C5.08657349 15.05272217 5.08657349 15.05272217 5.28125 13.6484375 C5.39533203 12.82520996 5.50941406 12.00198242 5.62695312 11.15380859 C6 9 6 9 7 6 C4.69 5.67 2.38 5.34 0 5 C0 3.35 0 1.7 0 0 Z " fill="#E01E00" transform="translate(3,8)"/>
<path d="M0 0 C12.21 0 24.42 0 37 0 C37.93491183 4.67455917 38.07972012 8.2965127 38 13 C35.69 13 33.38 13 31 13 C30.34 10.69 29.68 8.38 29 6 C24.71 5.67 20.42 5.34 16 5 C16 10.94 16 16.88 16 23 C16.66 22.67 17.32 22.34 18 22 C20.3329866 21.95977609 22.66706666 21.95679753 25 22 C25.33 20.35 25.66 18.7 26 17 C27.65 17 29.3 17 31 17 C31 22.61 31 28.22 31 34 C29.35 34 27.7 34 26 34 C25 33 25 33 24.9375 30.4375 C24.958125 29.633125 24.97875 28.82875 25 28 C22.03 28 19.06 28 16 28 C16 33.28 16 38.56 16 44 C18.31 44 20.62 44 23 44 C24.485 44.495 24.485 44.495 26 45 C26 46.32 26 47.64 26 49 C17.42 49 8.84 49 0 49 C0 47.68 0 46.36 0 45 C2.475 44.505 2.475 44.505 5 44 C5 31.46 5 18.92 5 6 C3.35 5.67 1.7 5.34 0 5 C0 3.35 0 1.7 0 0 Z " fill="#57A700" transform="translate(200,8)"/>
<path d="M0 0 C6.6 0 13.2 0 20 0 C20 1.65 20 3.3 20 5 C19.01 5.66 18.02 6.32 17 7 C18.65 8.65 20.3 10.3 22 12 C23.32 9.69 24.64 7.38 26 5 C25.01 5 24.02 5 23 5 C23 3.35 23 1.7 23 0 C28.28 0 33.56 0 39 0 C39 1.65 39 3.3 39 5 C38.21625 5.0825 37.4325 5.165 36.625 5.25 C33.91761828 5.69837439 33.91761828 5.69837439 33 7.6875 C32.67 8.450625 32.34 9.21375 32 10 C31.113125 10.969375 30.22625 11.93875 29.3125 12.9375 C26.72338415 15.68088907 26.72338415 15.68088907 27.1328125 18.3984375 C28.14025857 21.42077571 29.51807791 23.25484423 31.5625 25.6875 C35 29.8028169 35 29.8028169 35 32 C36.32 32.33 37.64 32.66 39 33 C39 34.32 39 35.64 39 37 C32.4 37 25.8 37 19 37 C19 35.68 19 34.36 19 33 C19.99 32.505 19.99 32.505 21 32 C20.690625 31.236875 20.38125 30.47375 20.0625 29.6875 C19.32106407 27.81210323 18.63771783 25.91315348 18 24 C17.34 24 16.68 24 16 24 C15.71125 24.763125 15.4225 25.52625 15.125 26.3125 C14 29 14 29 12 32 C13.32 32.33 14.64 32.66 16 33 C16 34.32 16 35.64 16 37 C10.39 37 4.78 37 -1 37 C-0.67 35.35 -0.34 33.7 0 32 C0.70125 31.5875 1.4025 31.175 2.125 30.75 C6.4831718 28.09719977 9.02903873 24.08400152 12 20 C10.4467033 16.52935269 8.3770513 13.77070538 6 10.8125 C5.29875 9.93207031 4.5975 9.05164062 3.875 8.14453125 C2.17934567 5.93175992 2.17934567 5.93175992 0 5 C0 3.35 0 1.7 0 0 Z " fill="#15E900" transform="translate(283,20)"/>
<path d="M0 0 C4.70093908 4.00079922 6.5712331 7.47546608 7.31640625 13.62890625 C7.55602876 20.29968768 7.24479101 26.15210963 2.9375 31.5 C-3.45559657 36.58838298 -9.11763324 37.24890138 -17.0625 36.5 C-21.71987681 35.28939046 -25.01588921 33.25991508 -27.5625 29.125 C-30.22785081 22.78289295 -30.39319621 14.71980134 -28.33203125 8.18359375 C-23.0342619 -1.82810915 -10.05922566 -4.97482402 0 0 Z M-15.875 5.25 C-18.90919736 10.99900553 -19.15964327 18.48189087 -17.4609375 24.703125 C-16.32799964 27.42675339 -15.15394937 29.40855063 -13.0625 31.5 C-10.04148918 31.34507637 -8.55862569 31.02261784 -6.453125 28.8046875 C-3.23120065 23.46498142 -3.48374065 15.88899834 -4.875 9.9375 C-5.92248882 6.43634953 -5.92248882 6.43634953 -8.0625 3.5 C-11.54637182 2.98112547 -13.27543952 2.74007953 -15.875 5.25 Z " fill="#B94500" transform="translate(96.0625,21.5)"/>
<path d="M0 0 C1.83498047 -0.03867187 1.83498047 -0.03867187 3.70703125 -0.078125 C7.43244375 0.27309234 9.23548636 1.00668278 12.1875 3.25 C15.72133967 8.24611815 15.76675867 13.33487781 15.1875 19.25 C14.1875 20.25 14.1875 20.25 12.14624023 20.36352539 C11.27169189 20.35828857 10.39714355 20.35305176 9.49609375 20.34765625 C8.55185547 20.34443359 7.60761719 20.34121094 6.63476562 20.33789062 C5.64154297 20.32951172 4.64832031 20.32113281 3.625 20.3125 C2.62791016 20.30798828 1.63082031 20.30347656 0.60351562 20.29882812 C-1.86854849 20.28700007 -4.34049518 20.27051849 -6.8125 20.25 C-6.21035928 21.71891534 -5.59604523 23.18284494 -4.9765625 24.64453125 C-4.6357666 25.46026611 -4.2949707 26.27600098 -3.94384766 27.11645508 C-2.90740981 29.49184878 -2.90740981 29.49184878 -0.1875 30.9375 C4.50948854 31.37240635 8.64755731 30.41638844 13.1875 29.25 C13.5175 30.9 13.8475 32.55 14.1875 34.25 C7.5007928 38.36489674 1.991009 39.15125034 -5.8125 38.25 C-10.58483575 36.63081466 -13.07138217 34.4595738 -15.8125 30.25 C-18.76986366 23.89166812 -18.80969429 16.58034485 -16.6875 9.9375 C-13.54157435 2.50167574 -7.65921559 0.09624145 0 0 Z M-4.5625 6.3125 C-6.39155748 9.14753909 -6.50004809 11.93800975 -6.8125 15.25 C-3.1825 15.25 0.4475 15.25 4.1875 15.25 C4.48312367 9.92829506 4.48312367 9.92829506 2.1875 5.25 C-0.58659733 4.8232158 -2.14452727 4.84444513 -4.5625 6.3125 Z " fill="#6F8F00" transform="translate(182.8125,19.75)"/>
<path d="M0 0 C6.27 0 12.54 0 19 0 C19 1.65 19 3.3 19 5 C18.01 5.33 17.02 5.66 16 6 C17.63040815 12.01077136 19.27147357 18.01663928 21 24 C23.50710309 18.06084316 25.60061654 12.29722557 27 6 C26.01 5.67 25.02 5.34 24 5 C24 3.35 24 1.7 24 0 C29.28 0 34.56 0 40 0 C40 5 40 5 38.17480469 6.89160156 C37.45711914 7.58737305 36.73943359 8.28314453 36 9 C34.46126141 12.15943996 34.46126141 12.15943996 33.203125 15.734375 C32.9646283 16.37240051 32.72613159 17.01042603 32.48040771 17.66778564 C31.72659413 19.69153239 30.98813524 21.72048921 30.25 23.75 C29.73928774 25.12927934 29.22757915 26.50819021 28.71484375 27.88671875 C27.46500478 31.25362556 26.22886623 34.62537353 25 38 C21.7 38 18.4 38 15 38 C14.65219482 37.0713916 14.30438965 36.1427832 13.94604492 35.18603516 C12.65315517 31.74199982 11.34746162 28.30293899 10.0378418 24.86523438 C9.4728101 23.37665245 8.91126033 21.88674402 8.35327148 20.39550781 C7.55062884 18.25227359 6.73558662 16.11412126 5.91796875 13.9765625 C5.54746651 12.97491562 5.54746651 12.97491562 5.16947937 11.95303345 C3.82041888 8.46551948 3.20440752 7.13627168 0 5 C0 3.35 0 1.7 0 0 Z " fill="#9D6100" transform="translate(103,20)"/>
<path d="M0 0 C0 15.84 0 31.68 0 48 C1.65 48.33 3.3 48.66 5 49 C5 50.32 5 51.64 5 53 C-1.6 53 -8.2 53 -15 53 C-14.67 51.35 -14.34 49.7 -14 48 C-13.01 48 -12.02 48 -11 48 C-11 34.14 -11 20.28 -11 6 C-12.65 5.67 -14.3 5.34 -16 5 C-16 3.68 -16 2.36 -16 1 C-14.27327966 0.63409254 -12.54346345 0.28277805 -10.8125 -0.0625 C-9.36810547 -0.35833984 -9.36810547 -0.35833984 -7.89453125 -0.66015625 C-5 -1 -5 -1 0 0 Z " fill="#3EC000" transform="translate(255,4)"/>
<path d="M0 0 C1 1 1 1 1.11352539 3.95922852 C1.10828857 5.25272217 1.10305176 6.54621582 1.09765625 7.87890625 C1.0962413 8.5655687 1.09482635 9.25223114 1.09336853 9.95970154 C1.08775479 12.16067801 1.07520007 14.36155409 1.0625 16.5625 C1.05748676 18.05143083 1.05292355 19.54036324 1.04882812 21.02929688 C1.03778093 24.68623075 1.02050713 28.34310558 1 32 C2.32 32.33 3.64 32.66 5 33 C5 34.32 5 35.64 5 37 C-1.27 37 -7.54 37 -14 37 C-13.67 35.35 -13.34 33.7 -13 32 C-12.01 32 -11.02 32 -10 32 C-10 23.75 -10 15.5 -10 7 C-11.65 6.67 -13.3 6.34 -15 6 C-15 4.35 -15 2.7 -15 1 C-10.09961113 -0.30677037 -5.03761016 -0.31718286 0 0 Z " fill="#2DD100" transform="translate(276,20)"/>
<path d="M0 0 C0 10.56 0 21.12 0 32 C1.65 32.33 3.3 32.66 5 33 C5 34.32 5 35.64 5 37 C-1.6 37 -8.2 37 -15 37 C-15 35.68 -15 34.36 -15 33 C-12.525 32.505 -12.525 32.505 -10 32 C-10 23.75 -10 15.5 -10 7 C-11.65 6.67 -13.3 6.34 -15 6 C-15 4.35 -15 2.7 -15 1 C-9.77294503 -0.39388132 -5.82152988 0 0 0 Z " fill="#847900" transform="translate(159,20)"/>
<path d="M0 0 C3.5625 0.375 3.5625 0.375 5.5625 2.0625 C6.82576211 4.98379364 6.58266252 6.39298647 5.5625 9.375 C3.23721713 11.70028287 2.71584102 11.67011025 -0.4375 11.6875 C-1.13875 11.70425781 -1.84 11.72101562 -2.5625 11.73828125 C-3.18125 11.61839844 -3.8 11.49851562 -4.4375 11.375 C-6.4375 8.375 -6.4375 8.375 -6.1875 5.3125 C-5.10753599 1.08264094 -4.36622246 0.47631518 0 0 Z " fill="#8D7100" transform="translate(153.4375,3.625)"/>
<path d="M0 0 C2 2 2 2 2.25 4.9375 C2 8 2 8 0 11 C-1.875 11.36328125 -1.875 11.36328125 -4 11.3125 C-4.70125 11.30863281 -5.4025 11.30476562 -6.125 11.30078125 C-8 11 -8 11 -10 9 C-10.3267107 5.92891945 -10.48138276 3.84949899 -8.9375 1.125 C-5.93267901 -0.61973477 -3.39189869 -0.30835443 0 0 Z " fill="#31CD00" transform="translate(275,4)"/>
</svg>
